<svg width="54" height="52" viewBox="0 0 54 52" fill="none" xmlns="http://www.w3.org/2000/svg">
<path d="M27 0.5C41.6535 0.5 53.5 11.9344 53.5 26C53.5 40.0656 41.6535 51.5 27 51.5C12.3465 51.5 0.5 40.0656 0.5 26C0.5 11.9344 12.3465 0.5 27 0.5Z" stroke="#00A4AF"/>
<path d="M27.038 22.5935V29.4772" stroke="#00A4AF" stroke-width="1.5" stroke-linecap="round" stroke-linejoin="round"/>
<path d="M30.6148 26.0354H23.459" stroke="#00A4AF" stroke-width="1.5" stroke-linecap="round" stroke-linejoin="round"/>
<path fill-rule="evenodd" clip-rule="evenodd" d="M17.3008 26.0354C17.3008 19.0037 19.7355 16.6592 27.0376 16.6592C34.3397 16.6592 36.7745 19.0037 36.7745 26.0354C36.7745 33.0671 34.3397 35.4116 27.0376 35.4116C19.7355 35.4116 17.3008 33.0671 17.3008 26.0354Z" stroke="#00A4AF" stroke-width="1.5" stroke-linecap="round" stroke-linejoin="round"/>
</svg>
