<svg width="17" height="20" viewBox="0 0 17 20" fill="none" xmlns="http://www.w3.org/2000/svg">
<path d="M5.82415 17.6885C6.12186 17.4484 6.55571 17.4984 6.7929 17.7998C7.13804 18.2381 7.64658 18.5231 8.20598 18.5898C8.76633 18.6566 9.33041 18.4987 9.78215 18.1445C9.91531 18.0441 10.0352 17.9269 10.1386 17.7969C10.3772 17.4967 10.8117 17.4489 11.1083 17.6904C11.4047 17.932 11.4514 18.3717 11.2128 18.6719C11.0366 18.8936 10.8329 19.0922 10.6171 19.2549C9.88949 19.8258 8.96356 20.085 8.04485 19.9756C7.12555 19.866 6.28711 19.396 5.71477 18.6689C5.47758 18.3676 5.52645 17.9286 5.82415 17.6885ZM8.53606 0C11.9034 4.34959e-05 14.9937 2.44307 15.3036 5.68555C15.3214 5.89157 15.3287 6.07465 15.331 6.33203V7.00488C15.3314 7.1271 15.3331 7.22523 15.3359 7.31348L15.3447 7.50977L15.3896 7.69727C15.5303 8.21818 15.7776 8.70511 16.1161 9.12793L16.2665 9.30566L16.329 9.38477C16.7351 9.9917 16.9668 10.6984 16.9999 11.459L16.999 11.8623C16.9706 12.7631 16.6401 13.6334 16.0341 14.3584C15.2314 15.2103 14.1432 15.7393 12.9872 15.8457C10.0019 16.1699 6.98962 16.17 4.01262 15.8467C2.84875 15.7347 1.76442 15.2068 0.926685 14.3223C0.308875 13.5691 -0.0195853 12.6205 0.000903799 11.6621L0.00188036 11.4238C0.037632 10.6953 0.267612 9.98943 0.668873 9.37988L0.736255 9.29395C1.20495 8.7801 1.52593 8.15063 1.66497 7.47266L1.64934 7.53418L1.65227 7L1.66399 6.4043C1.67279 6.14944 1.68697 5.91218 1.70696 5.68066C2.00682 2.44442 5.09574 0 8.46477 0H8.53606ZM8.46477 1.39551C5.76658 1.39551 3.3085 3.34084 3.08001 5.80664C3.06831 5.94214 3.05897 6.08237 3.05169 6.22949L3.03508 6.69531L3.02825 7.61523L3.01458 7.75684C2.8246 8.68314 2.38691 9.54082 1.74895 10.2402L1.79876 10.1836L1.70989 10.3291C1.54488 10.6265 1.43848 10.9499 1.39641 11.2686L1.37883 11.459V11.6777C1.36539 12.3145 1.58126 12.9362 1.95403 13.3936C2.52904 13.9986 3.30678 14.3766 4.15129 14.458C7.03888 14.7716 9.95286 14.7717 12.8515 14.457C13.6871 14.38 14.465 14.002 15.0087 13.4268C15.4202 12.9332 15.6369 12.3093 15.621 11.6533L15.622 11.4902C15.601 11.0187 15.4511 10.5611 15.1874 10.167L15.2021 10.1924L15.0644 10.0312C14.589 9.44454 14.244 8.76365 14.0517 8.03418L13.9863 7.75781L13.9736 7.66602C13.9638 7.53077 13.958 7.41011 13.955 7.26562L13.9531 6.36035C13.9512 6.13048 13.9446 5.97569 13.9306 5.81348C13.6943 3.34101 11.2335 1.39558 8.53606 1.39551H8.46477Z" fill="#292F38"/>
</svg>
