<svg width="22" height="21" viewBox="0 0 22 21" fill="none" xmlns="http://www.w3.org/2000/svg">
<path d="M20.75 18.7175H19.75V7.4475C19.75 6.8275 19.47 6.2475 18.98 5.8675L17.75 4.9075L17.73 2.4575C17.73 1.9075 17.28 1.4675 16.73 1.4675H13.32L11.98 0.4275C11.26 -0.1425 10.24 -0.1425 9.52 0.4275L2.52 5.8675C2.03 6.2475 1.75 6.8275 1.75 7.4375L1.7 18.7175H0.75C0.34 18.7175 0 19.0575 0 19.4675C0 19.8775 0.34 20.2175 0.75 20.2175H20.75C21.16 20.2175 21.5 19.8775 21.5 19.4675C21.5 19.0575 21.16 18.7175 20.75 18.7175ZM5.25 10.2175V8.7175C5.25 8.1675 5.7 7.7175 6.25 7.7175H8.25C8.8 7.7175 9.25 8.1675 9.25 8.7175V10.2175C9.25 10.7675 8.8 11.2175 8.25 11.2175H6.25C5.7 11.2175 5.25 10.7675 5.25 10.2175ZM13.25 18.7175H8.25V15.9675C8.25 15.1375 8.92 14.4675 9.75 14.4675H11.75C12.58 14.4675 13.25 15.1375 13.25 15.9675V18.7175ZM16.25 10.2175C16.25 10.7675 15.8 11.2175 15.25 11.2175H13.25C12.7 11.2175 12.25 10.7675 12.25 10.2175V8.7175C12.25 8.1675 12.7 7.7175 13.25 7.7175H15.25C15.8 7.7175 16.25 8.1675 16.25 8.7175V10.2175Z" fill="#F1F1F7"/>
</svg>
